<?xml version="1.0" encoding="utf-8"?>
<!-- Generator: Adobe Illustrator 16.0.4, SVG Export Plug-In . SVG Version: 6.00 Build 0)  -->
<!DOCTYPE svg PUBLIC "-//W3C//DTD SVG 1.1//EN" "http://www.w3.org/Graphics/SVG/1.1/DTD/svg11.dtd">
<svg version="1.1" id="Layer_1" xmlns="http://www.w3.org/2000/svg" xmlns:xlink="http://www.w3.org/1999/xlink" x="0px" y="0px"
	 width="612px" height="148px" viewBox="0 324.5 612 148" enable-background="new 0 324.5 612 148" xml:space="preserve">
<g>
	<path fill="#FFC900" d="M72.211,380.142h13.963v58.247H72.211v-6.184c-5.785,5.187-11.77,7.78-18.352,7.78
		c-8.378,0-15.161-2.992-20.546-8.777c-5.386-5.984-8.179-13.365-8.179-22.342c0-8.777,2.792-15.958,8.179-21.942
		c5.386-5.785,12.168-8.777,20.147-8.777c6.981,0,13.166,2.793,18.751,8.378V380.142z M39.297,409.065
		c0,5.586,1.596,10.174,4.588,13.564c3.192,3.59,7.181,5.386,11.969,5.386c5.187,0,9.375-1.796,12.368-5.187
		c3.191-3.591,4.788-7.979,4.788-13.564c0-5.586-1.596-9.975-4.788-13.564c-3.192-3.391-7.181-5.187-12.368-5.187
		c-4.788,0-8.777,1.795-11.969,5.187C40.694,399.491,39.297,403.879,39.297,409.065z"/>
	<path fill="#FFC900" d="M138.438,390.115l-11.57,5.983c-1.795-3.59-3.989-5.386-6.782-5.386c-1.197,0-2.394,0.399-3.191,1.197
		c-0.998,0.798-1.396,1.795-1.396,3.192c0,2.194,2.593,4.389,7.979,6.583c7.381,2.992,12.368,5.984,14.961,8.577
		c2.593,2.594,3.79,5.984,3.79,10.373c0,5.585-2.194,10.373-6.383,14.163c-4.189,3.59-9.176,5.386-14.961,5.386
		c-10.173,0-17.155-4.788-21.344-14.361l11.77-5.387c1.596,2.792,2.992,4.589,3.79,5.387c1.596,1.596,3.79,2.193,5.984,2.193
		c4.788,0,6.982-1.995,6.982-6.185c0-2.395-1.795-4.588-5.386-6.782c-1.396-0.598-2.792-1.396-4.189-1.994
		c-1.397-0.598-2.792-1.396-4.189-1.995c-3.99-1.994-6.782-3.79-8.578-5.784c-2.194-2.395-3.191-5.585-3.191-9.375
		c0-4.987,1.795-9.176,5.386-12.567c3.59-3.391,8.179-4.987,13.365-4.987C129.062,378.545,134.848,382.336,138.438,390.115z"/>
	<path fill="#FFFFFF" d="M324.751,337.253V438.39h-13.964V337.253H324.751z"/>
	<path fill="#FFFFFF" d="M396.962,412.457h-43.087c0.398,4.787,1.994,8.577,4.787,11.37s6.384,4.188,10.972,4.188
		c3.392,0,6.383-0.798,8.577-2.394c2.194-1.597,4.788-4.589,7.58-8.777l11.77,6.383c-1.795,2.992-3.79,5.587-5.784,7.78
		c-1.994,2.194-4.188,3.989-6.384,5.188c-2.193,1.195-4.787,2.394-7.381,2.991c-2.593,0.599-5.585,0.997-8.776,0.997
		c-8.978,0-16.157-2.793-21.543-8.378c-5.388-5.586-8.18-13.166-8.18-22.342s2.593-16.756,7.979-22.342
		c5.386-5.586,12.368-8.378,21.146-8.378c8.776,0,15.759,2.792,20.944,8.179c5.187,5.386,7.581,12.966,7.581,22.541L396.962,412.457
		z M382.799,401.485c-1.994-7.181-6.582-10.771-13.963-10.771c-1.596,0-3.191,0.199-4.788,0.798
		c-1.396,0.599-2.792,1.197-3.989,2.194c-1.196,0.997-2.193,1.995-3.19,3.391c-0.998,1.396-1.597,2.793-1.995,4.589H382.8
		L382.799,401.485L382.799,401.485z"/>
	<path fill="#FFFFFF" d="M456.407,380.142h13.963v58.247h-13.963v-6.184c-5.785,5.187-11.771,7.78-18.354,7.78
		c-8.378,0-15.16-2.992-20.546-8.777c-5.386-5.984-8.179-13.365-8.179-22.342c0-8.777,2.593-15.958,8.179-21.942
		c5.386-5.785,12.168-8.777,20.147-8.777c6.98,0,13.165,2.793,18.751,8.378L456.407,380.142L456.407,380.142z M423.493,409.065
		c0,5.586,1.596,10.174,4.588,13.564c3.191,3.59,7.181,5.386,11.969,5.386c5.188,0,9.375-1.796,12.367-5.187
		c3.192-3.591,4.788-7.979,4.788-13.564c0-5.586-1.597-9.975-4.788-13.564c-3.191-3.391-7.181-5.187-12.367-5.187
		c-4.788,0-8.776,1.795-11.969,5.187C425.089,399.491,423.493,403.879,423.493,409.065z"/>
	<path fill="#FFFFFF" d="M487.925,380.142h13.963v5.187c2.595-2.593,4.788-4.389,6.782-5.386c1.995-0.998,4.389-1.596,7.182-1.596
		c3.592,0,7.58,1.197,11.569,3.391l-6.383,12.368c-2.594-1.795-5.188-2.792-7.78-2.792c-7.58,0-11.37,5.585-11.37,16.557v30.32
		h-13.963V380.142L487.925,380.142z"/>
	<path fill="#FFFFFF" d="M536.996,380.142h13.964v5.386c4.787-4.588,10.372-6.982,16.356-6.982c6.981,0,12.367,2.194,16.356,6.383
		c3.393,3.591,4.987,9.575,4.987,17.753v35.707h-13.964v-32.516c0-5.785-0.798-9.774-2.395-11.969
		c-1.596-2.194-4.588-3.391-8.776-3.391c-4.588,0-7.779,1.396-9.774,4.389c-1.795,2.994-2.792,7.979-2.792,15.162v28.126h-13.964
		L536.996,380.142L536.996,380.142z"/>
</g>
<g>
	<path fill="#FFC900" d="M193.095,371.364h16.158v38.897c0,11.171,4.588,16.756,13.764,16.756c9.176,0,13.764-5.585,13.764-16.756
		v-38.897h16.158v26.53h29.722c-2.194-30.122-27.927-53.66-59.445-53.66c-31.917,0-57.649,23.539-59.843,53.66h29.722V371.364z
		 M250.545,424.625c-1.396,3.591-3.59,6.782-6.981,9.575c-5.386,4.588-12.368,6.98-20.746,6.98s-15.36-2.394-20.746-6.98
		c-3.391-2.793-5.785-5.984-7.181-9.575c-1.197-2.992-1.995-7.381-1.995-13.165h-28.924c4.588,27.527,29.124,48.473,58.846,48.473
		c29.722,0,54.258-20.944,58.846-48.473H252.54C252.54,416.646,251.941,421.034,250.545,424.625z"/>
	<path opacity="0.63" fill="#FFC900" enable-background="new    " d="M250.545,424.625c-1.396,3.591-3.59,6.782-6.981,9.575
		c-5.386,4.588-12.368,6.782-20.746,6.782s-15.36-2.194-20.746-6.782c-3.391-2.793-5.785-5.984-7.181-9.575
		c-1.197-2.992-1.995-7.381-1.995-13.165h-28.924c4.588,27.527,29.124,48.473,58.846,48.473c29.722,0,54.258-20.944,58.846-48.473
		H252.54C252.54,416.646,251.941,421.034,250.545,424.625z"/>
</g>
</svg>
